<svg id="visual" viewBox="0 0 900 600" width="900" height="600" xmlns="http://www.w3.org/2000/svg" xmlns:xlink="http://www.w3.org/1999/xlink" version="1.1"><rect x="0" y="0" width="900" height="600" fill="#d4dbe3"></rect><path d="M0 402L16.7 389.2C33.3 376.3 66.7 350.7 100 353.5C133.3 356.3 166.7 387.7 200 398.3C233.3 409 266.7 399 300 390.8C333.3 382.7 366.7 376.3 400 369.2C433.3 362 466.7 354 500 348.2C533.3 342.3 566.7 338.7 600 342.5C633.3 346.3 666.7 357.7 700 364.2C733.3 370.7 766.7 372.3 800 368C833.3 363.7 866.7 353.3 883.3 348.2L900 343L900 0L883.3 0C866.7 0 833.3 0 800 0C766.7 0 733.3 0 700 0C666.7 0 633.3 0 600 0C566.7 0 533.3 0 500 0C466.7 0 433.3 0 400 0C366.7 0 333.3 0 300 0C266.7 0 233.3 0 200 0C166.7 0 133.3 0 100 0C66.7 0 33.3 0 16.7 0L0 0Z" fill="#222831"></path><path d="M0 343L16.7 346.5C33.3 350 66.7 357 100 352C133.3 347 166.7 330 200 319.2C233.3 308.3 266.7 303.7 300 299C333.3 294.3 366.7 289.7 400 295.7C433.3 301.7 466.7 318.3 500 325.8C533.3 333.3 566.7 331.7 600 331.8C633.3 332 666.7 334 700 337C733.3 340 766.7 344 800 336.7C833.3 329.3 866.7 310.7 883.3 301.3L900 292L900 0L883.3 0C866.7 0 833.3 0 800 0C766.7 0 733.3 0 700 0C666.7 0 633.3 0 600 0C566.7 0 533.3 0 500 0C466.7 0 433.3 0 400 0C366.7 0 333.3 0 300 0C266.7 0 233.3 0 200 0C166.7 0 133.3 0 100 0C66.7 0 33.3 0 16.7 0L0 0Z" fill="#2b333e"></path><path d="M0 280L16.7 279.2C33.3 278.3 66.7 276.7 100 279.3C133.3 282 166.7 289 200 297.2C233.3 305.3 266.7 314.7 300 309.7C333.3 304.7 366.7 285.3 400 276.3C433.3 267.3 466.7 268.7 500 266.7C533.3 264.7 566.7 259.3 600 257.2C633.3 255 666.7 256 700 260.5C733.3 265 766.7 273 800 272.3C833.3 271.7 866.7 262.3 883.3 257.7L900 253L900 0L883.3 0C866.7 0 833.3 0 800 0C766.7 0 733.3 0 700 0C666.7 0 633.3 0 600 0C566.7 0 533.3 0 500 0C466.7 0 433.3 0 400 0C366.7 0 333.3 0 300 0C266.7 0 233.3 0 200 0C166.7 0 133.3 0 100 0C66.7 0 33.3 0 16.7 0L0 0Z" fill="#343e4b"></path><path d="M0 261L16.7 254.3C33.3 247.7 66.7 234.3 100 229.7C133.3 225 166.7 229 200 226.3C233.3 223.7 266.7 214.3 300 218.8C333.3 223.3 366.7 241.7 400 248.5C433.3 255.3 466.7 250.7 500 241.8C533.3 233 566.7 220 600 218.2C633.3 216.3 666.7 225.7 700 231.7C733.3 237.7 766.7 240.3 800 245.3C833.3 250.3 866.7 257.7 883.3 261.3L900 265L900 0L883.3 0C866.7 0 833.3 0 800 0C766.7 0 733.3 0 700 0C666.7 0 633.3 0 600 0C566.7 0 533.3 0 500 0C466.7 0 433.3 0 400 0C366.7 0 333.3 0 300 0C266.7 0 233.3 0 200 0C166.7 0 133.3 0 100 0C66.7 0 33.3 0 16.7 0L0 0Z" fill="#3d4959"></path><path d="M0 173L16.7 179.3C33.3 185.7 66.7 198.3 100 201.2C133.3 204 166.7 197 200 191.2C233.3 185.3 266.7 180.7 300 180.7C333.3 180.7 366.7 185.3 400 188C433.3 190.7 466.7 191.3 500 187.3C533.3 183.3 566.7 174.7 600 170.2C633.3 165.7 666.7 165.3 700 174.8C733.3 184.3 766.7 203.7 800 207.7C833.3 211.7 866.7 200.3 883.3 194.7L900 189L900 0L883.3 0C866.7 0 833.3 0 800 0C766.7 0 733.3 0 700 0C666.7 0 633.3 0 600 0C566.7 0 533.3 0 500 0C466.7 0 433.3 0 400 0C366.7 0 333.3 0 300 0C266.7 0 233.3 0 200 0C166.7 0 133.3 0 100 0C66.7 0 33.3 0 16.7 0L0 0Z" fill="#475567"></path><path d="M0 129L16.7 133.3C33.3 137.7 66.7 146.3 100 148.7C133.3 151 166.7 147 200 144.2C233.3 141.3 266.7 139.7 300 140.7C333.3 141.7 366.7 145.3 400 149.3C433.3 153.3 466.7 157.7 500 158C533.3 158.3 566.7 154.7 600 152.3C633.3 150 666.7 149 700 148C733.3 147 766.7 146 800 145C833.3 144 866.7 143 883.3 142.5L900 142L900 0L883.3 0C866.7 0 833.3 0 800 0C766.7 0 733.3 0 700 0C666.7 0 633.3 0 600 0C566.7 0 533.3 0 500 0C466.7 0 433.3 0 400 0C366.7 0 333.3 0 300 0C266.7 0 233.3 0 200 0C166.7 0 133.3 0 100 0C66.7 0 33.3 0 16.7 0L0 0Z" fill="#506176"></path><path d="M0 97L16.7 100C33.3 103 66.7 109 100 107C133.3 105 166.7 95 200 94.3C233.3 93.7 266.7 102.3 300 103C333.3 103.7 366.7 96.3 400 92C433.3 87.7 466.7 86.3 500 92C533.3 97.7 566.7 110.3 600 113.3C633.3 116.3 666.7 109.7 700 108.3C733.3 107 766.7 111 800 113C833.3 115 866.7 115 883.3 115L900 115L900 0L883.3 0C866.7 0 833.3 0 800 0C766.7 0 733.3 0 700 0C666.7 0 633.3 0 600 0C566.7 0 533.3 0 500 0C466.7 0 433.3 0 400 0C366.7 0 333.3 0 300 0C266.7 0 233.3 0 200 0C166.7 0 133.3 0 100 0C66.7 0 33.3 0 16.7 0L0 0Z" fill="#5a6e85"></path><path d="M0 68L16.7 64.7C33.3 61.3 66.7 54.7 100 54.8C133.3 55 166.7 62 200 66.2C233.3 70.3 266.7 71.7 300 67.8C333.3 64 366.7 55 400 50C433.3 45 466.7 44 500 45.8C533.3 47.7 566.7 52.3 600 55.5C633.3 58.7 666.7 60.3 700 57.8C733.3 55.3 766.7 48.7 800 46.5C833.3 44.3 866.7 46.7 883.3 47.8L900 49L900 0L883.3 0C866.7 0 833.3 0 800 0C766.7 0 733.3 0 700 0C666.7 0 633.3 0 600 0C566.7 0 533.3 0 500 0C466.7 0 433.3 0 400 0C366.7 0 333.3 0 300 0C266.7 0 233.3 0 200 0C166.7 0 133.3 0 100 0C66.7 0 33.3 0 16.7 0L0 0Z" fill="#637b94"></path></svg>